<svg xmlns="http://www.w3.org/2000/svg" width="48.066" height="38.251" viewBox="0 0 48.066 38.251">
  <g id="Group_301" data-name="Group 301" transform="translate(-23.932 -29.128)">
    <path id="mail" d="M3.026,7.508A2.67,2.67,0,0,1,5.7,4.838H48.4a2.67,2.67,0,0,1,2.67,2.67v30.24a5.341,5.341,0,0,1-5.341,5.341H8.341A5.341,5.341,0,0,1,3,37.748V8.374A2.693,2.693,0,0,1,3.026,8Zm5.315,5.938v24.3H45.726v-24.3L32.7,26.475a8.011,8.011,0,0,1-11.329,0Zm4.2-3.354H41.528L28.922,22.7a2.67,2.67,0,0,1-3.776,0Z" transform="translate(20.932 24.29)" fill="#eb9571" fill-rule="evenodd"/>
  </g>
</svg>
