<svg id="pin" xmlns="http://www.w3.org/2000/svg" width="35" height="42.241" viewBox="0 0 35 42.241">
  <path id="Path_42302" data-name="Path 42302" d="M23.828,14.05A7.778,7.778,0,1,1,16.05,6.272,7.778,7.778,0,0,1,23.828,14.05Zm-3.889,0a3.889,3.889,0,1,1-3.889-3.889A3.889,3.889,0,0,1,19.939,14.05Z" transform="translate(1.979 3.979)" fill="#ec3c70" fill-rule="evenodd"/>
  <path id="Path_42303" data-name="Path 42303" d="M8.433,31.174a17.5,17.5,0,1,1,24.741-.607L21.107,43.241Zm21.925-3.289-9.385,9.858-9.858-9.385a13.611,13.611,0,1,1,19.243-.472Z" transform="translate(-3 -1)" fill="#ec3c70" fill-rule="evenodd"/>
</svg>
